<?xml version="1.0" encoding="utf-8"?>
<!-- Generator: Adobe Illustrator 25.2.1, SVG Export Plug-In . SVG Version: 6.00 Build 0)  -->
<svg version="1.1" id="Layer_1" xmlns="http://www.w3.org/2000/svg" xmlns:xlink="http://www.w3.org/1999/xlink" x="0px" y="0px"
	 viewBox="0 0 230 230" style="enable-background:new 0 0 230 230;" xml:space="preserve">
<style type="text/css">
	.st0{fill:#43BC96;}
</style>
<g id="Capa_2">
	<g id="Capa_1-2">
		<path class="st0" d="M136.05,130.79c-1.82,0.1-2.91,1.47-2.9,3.64c0.06,9.2,8.21,17.53,17.38,17.76c2.3,0,3.56-0.6,3.92-2
			c0.06-0.25,0.1-0.5,0.12-0.75c0.1-2-0.92-2.93-3.45-3.25c-3.69-0.45-6.48-1.71-8.44-3.8c-1.99-2.31-3.17-5.2-3.36-8.24
			C139.05,131.93,137.85,130.69,136.05,130.79z"/>
		<path class="st0" d="M185.55,33.01L185.55,33.01c-12,0-22,7.32-25.07,17.27c-0.65,2.04-0.99,4.16-1,6.3v35.31
			c1.01,1.44,2.32,2.64,3.84,3.51c4.63,2.65,8.63,6.27,11.73,10.61c2.93,3.99,4.47,8.83,4.41,13.78c-0.09,5,0.07,10-0.06,14.94
			c-0.39,14.62-11.64,26.14-26.77,26.89c-13.93,0.69-26.15-9.22-28.34-23c-0.6-3.94-0.47-8-0.67-12c-0.12-3.68,0.07-7.35,0.55-11
			c1.44-8.6,7-14.43,14-19.2c0.9-0.63,1.88-1.15,2.77-1.78c0.54-0.38,1.05-0.81,1.52-1.28V56.58c0-13-11.66-23.57-26-23.57
			c-12.94,0-23.57,8.37-25.75,19.39c-0.28,1.38-0.42,2.78-0.43,4.18v37.17c1,1.24,2.23,2.29,3.61,3.09
			c5.52,3.13,10.11,7.68,13.3,13.17c1.99,3.43,3.02,7.33,3,11.29c0,11.64,0,23.29,0,34.93c0.03,0.91-0.12,1.82-0.44,2.68
			c-0.83,2.03-3.02,3.16-5.16,2.66c-2.25-0.55-3.84-2.57-3.85-4.89c-0.09-2.1,0-4.21,0-6.31c0-6.45,0-12.89,0-19.34
			c0-4.49-2.88-7.66-6.94-7.72c-1.2-0.03-2.38,0.26-3.43,0.85c-2.36,1.41-3.77,3.98-3.68,6.73c0,6.1,0,12.2,0,18.3c0,2,0,4,0,6
			c0.01,0.79-0.02,1.58-0.11,2.36c-0.19,2.18-1.93,3.91-4.11,4.09c-2.27,0.3-4.4-1.12-5-3.33c-0.26-1.02-0.38-2.07-0.36-3.12
			c0-1.75,0-3.5,0-5.26c0-6.53,0-13.07,0-19.61c0.09-2.65-1.44-5.08-3.86-6.15l-0.44-0.16c-2.45-1.16-5.37-0.69-7.33,1.18
			c-1.62,1.38-2.51,3.42-2.43,5.54c0,8.19,0,16.35,0,24.48c0,0.53,0,1,0,1.58c-0.16,2.86-2.09,4.85-4.67,4.86
			c-2.65-0.05-4.76-2.23-4.71-4.89c0-0.04,0-0.08,0-0.11c0-6.32,0-12.64,0-19c0-5.86-0.24-11.73,0.06-17.57
			c0.54-10.52,4.7-18.85,15-23.21c1.72-0.71,3.26-1.81,4.48-3.22V56.58c0-13-11.67-23.57-26-23.57S21.05,43.56,21.05,56.58v84.66
			c0,16.97,4.13,29.97,12.4,39c10.49,11.42,24.41,17.13,41.78,17.14c13.75,0,27.42-5.88,41-17.65
			c12.25,11.77,26.09,17.66,41.51,17.65c14.95,0,27.67-4.94,38.16-14.81c10.49-9.87,15.74-21.87,15.74-36V56.58
			C211.6,43.56,199.94,33.01,185.55,33.01z"/>
	</g>
</g>
</svg>
