<?xml version="1.0" encoding="utf-8"?>
<!-- Generator: Adobe Illustrator 25.2.1, SVG Export Plug-In . SVG Version: 6.00 Build 0)  -->
<svg version="1.1" id="Layer_1" xmlns="http://www.w3.org/2000/svg" xmlns:xlink="http://www.w3.org/1999/xlink" x="0px" y="0px"
	 viewBox="0 0 1049.1 164.3" style="enable-background:new 0 0 1049.1 164.3;" xml:space="preserve">
<style type="text/css">
	.st0{fill:#28C699;}
</style>
<g id="Capa_2">
	<g id="Capa_1-2">
		<path class="st0" d="M276.5,81.1l-13,36.5h-11.7l-26.1-70.5h12l12.8,36.8c0.8,2,1.7,4.8,3,8.5s2.7,8.1,4.4,13.4h0.1
			c1.8-5.3,3.3-9.8,4.5-13.5c1.2-3.6,2.2-6.4,2.8-8.4l12.8-36.8h11.7l12.8,36.8c0.8,2,1.8,4.8,3,8.5c1.2,3.6,2.7,8.1,4.4,13.4h0.1
			c1.8-5.3,3.3-9.8,4.5-13.5c1.2-3.6,2.2-6.4,2.8-8.4l12.8-36.8h11.4l-26.1,70.5H304l-13-36.5c-1.1-3.2-2.3-6.5-3.5-10.1
			s-2.4-7.2-3.7-11.1h-0.3c-1,3.4-2.1,6.8-3.3,10.4S277.8,77.4,276.5,81.1z"/>
		<path class="st0" d="M386.2,55.3c-6.2,0-11.1,1.9-14.7,5.8c-3.6,3.9-5.4,9.1-5.5,15.7v40.9h-11V11h11v46.1h0.1
			c2.2-3.7,5.3-6.6,9.2-8.5c4.2-2.2,8.9-3.3,13.7-3.2c8.4,0,15,2.6,19.9,7.9s7.3,12.2,7.3,20.9v43.4h-11V76c0-6.9-1.6-12-4.8-15.5
			C397.2,57,392.5,55.3,386.2,55.3z"/>
		<path class="st0" d="M497.9,117.9c-3.5,0.1-6.9-0.7-9.9-2.5c-2.8-1.7-5-4.2-6.2-7.3c-2.8,3.5-6.4,6.3-10.6,8.2
			c-4.4,2-9.2,3-14.1,3c-7.4,0-13.5-2-18.1-5.9c-4.6-3.8-7.2-9.5-7-15.5c0-6.9,2.5-12.1,7.4-15.9s12.1-5.6,21.5-5.6h18.9v-2.2
			c0-5.9-1.6-10.5-4.9-13.8s-8-4.9-14.2-4.9c-1.6,0-3.2,0.1-4.8,0.4c-1.6,0.3-3.2,0.8-4.6,1.4c-1.6,0.6-3.1,1.4-4.4,2.3
			c-1.2,0.8-2.3,1.8-3.3,2.9l-6.1-7.5c1.3-1.6,2.9-3,4.7-4.1c2.1-1.3,4.4-2.5,6.7-3.4c2.1-0.8,4.3-1.3,6.5-1.7
			c2.3-0.4,4.7-0.6,7-0.6c8.6,0,15.4,2.6,20.5,7.8s7.7,12.1,7.7,20.7v24.8c0,3.2,0.7,5.5,2,7s3.5,2.2,6.3,2.2c0.5,0,0.9,0,1.4-0.1
			v10c-0.4,0.1-0.7,0.1-1.1,0.1L497.9,117.9z M443.2,97.6c-0.1,3.5,1.5,6.9,4.3,9c2.9,2.2,6.7,3.2,11.6,3.2
			c5.4,0.2,10.7-1.7,14.8-5.2c3.9-3.3,6.1-8.3,5.9-13.4v-5.6h-18.5c-6.1,0-10.7,1-13.7,3C444.7,90.6,443.2,93.6,443.2,97.6z"/>
		<path class="st0" d="M547.1,47.1v9.7h-16.5v60.8h-11V56.8h-16.5v-9.7h16.5v-21h11v21H547.1z"/>
		<path class="st0" d="M582.6,107.8v9.7c-0.6,0.2-1.3,0.3-1.9,0.3c-0.7,0-1.5,0.1-2.3,0.1c-5.3,0-9.4-1.5-12.3-4.7
			c-2.8-3.1-4.3-7.6-4.2-13.5V56.8h-16.5v-9.7h16.5v-21h11v21h16.5v9.7h-16.5v42.9c0,2.7,0.6,4.8,1.8,6.1c1.5,1.4,3.5,2.2,5.5,2
			c0.4,0,0.8,0,1.3-0.1C581.9,107.7,582.3,107.7,582.6,107.8z"/>
		<path class="st0" d="M633,55.3c-6.2,0-11.1,1.9-14.7,5.8s-5.4,9.1-5.4,15.7v40.9h-11V11h11v46.1h0.2c2.2-3.7,5.3-6.6,9.2-8.5
			c4.2-2.2,8.9-3.2,13.7-3.2c8.4,0,15,2.6,19.9,7.9s7.3,12.2,7.3,20.9v43.4h-11V76c0-6.9-1.6-12-4.8-15.5
			C644,57,639.3,55.3,633,55.3z"/>
		<path class="st0" d="M736.8,99.8l6.6,6.9c-1.4,2-3.1,3.7-5.1,5.2c-2.3,1.7-4.8,3.2-7.5,4.2c-2.4,1-4.9,1.8-7.4,2.3
			c-2.7,0.5-5.4,0.8-8.1,0.8c-10.7,0-19.3-3.4-25.9-10.2c-6.5-6.8-9.8-15.7-9.8-26.8c0-10.5,3.2-19.3,9.7-26.4
			c6.1-6.9,14.9-10.7,24.1-10.6c9.8,0,17.7,3.1,23.8,9.4s9.1,14.5,9.1,24.6c0,1.3,0,2.5-0.1,3.5c0,0.9-0.2,1.8-0.3,2.7h-54.7
			c0.5,7.1,3,12.8,7.6,17.2s10.4,6.6,17.3,6.6c2,0,3.9-0.2,5.8-0.6c1.9-0.4,3.8-1.1,5.6-1.9c1.9-0.9,3.6-1.9,5.3-3.2
			C734.4,102.6,735.7,101.3,736.8,99.8z M713.2,55.3c-5.5-0.1-10.8,2-14.7,5.9c-4.1,4.1-6.6,9.5-7.2,15.2h43.3v-0.7
			c0.2-5.5-2-10.8-5.9-14.7C724.8,57.2,719.6,55.3,713.2,55.3z"/>
		<path class="st0" d="M795.6,47.1v9.7h-16.5v60.8h-11V56.8h-16.5v-9.7h16.5V36c0-7.5,2.2-13.6,6.6-18.1s10.2-6.9,17.6-6.9
			c0.9,0,1.8,0,2.6,0.1s1.5,0.1,2.2,0.2v9.9c-0.6-0.1-1.2-0.2-1.8-0.2c-0.7,0-1.4-0.1-2.3-0.1c-4.5,0-7.9,1.2-10.3,3.7
			s-3.5,6-3.5,10.7v11.9H795.6z"/>
		<path class="st0" d="M876.2,82.4c0,10.5-3.5,19.3-10.6,26.4c-7,7-15.8,10.6-26.4,10.6c-10.5,0-19.3-3.5-26.4-10.6
			c-7.1-7.1-10.6-15.8-10.6-26.4c0-10.5,3.5-19.3,10.6-26.4s15.8-10.6,26.4-10.6c10.5,0,19.3,3.5,26.4,10.6
			C872.7,63,876.2,71.8,876.2,82.4z M864.4,82.4c0-7.9-2.3-14.3-6.9-19.2s-10.7-7.4-18.2-7.4c-7.5,0-13.6,2.5-18.2,7.4
			c-4.6,4.9-6.9,11.3-6.9,19.2c0,7.9,2.3,14.3,6.9,19.2s10.7,7.4,18.2,7.4s13.6-2.5,18.2-7.4S864.4,90.3,864.4,82.4L864.4,82.4z"/>
		<path class="st0" d="M963.1,82.4c0,10.5-3.5,19.3-10.6,26.4c-7.1,7-15.8,10.6-26.4,10.6c-10.5,0-19.3-3.5-26.4-10.6
			c-7.1-7.1-10.6-15.8-10.6-26.4c0-10.5,3.5-19.3,10.6-26.4s15.8-10.6,26.4-10.6c10.5,0,19.3,3.5,26.4,10.6S963.1,71.8,963.1,82.4z
			 M951.2,82.4c0-7.9-2.3-14.3-6.9-19.2c-4.6-4.9-10.7-7.4-18.2-7.4c-7.5,0-13.6,2.5-18.2,7.4c-4.6,4.9-6.9,11.3-6.9,19.2
			s2.3,14.3,6.9,19.2c4.6,4.9,10.7,7.4,18.2,7.4c7.5,0,13.6-2.5,18.2-7.4C948.9,96.7,951.2,90.3,951.2,82.4z"/>
		<path class="st0" d="M1038.3,104.9h-0.1c-2.7,4.5-6.5,8.3-11.2,10.7c-5,2.5-10.4,3.8-16,3.7c-10.1,0-18.4-3.5-25-10.6
			c-6.6-7.1-9.9-15.8-9.9-26.4c0-10.5,3.3-19.3,9.9-26.4c6.6-7,14.9-10.6,25-10.6c5.6-0.1,11,1.2,16,3.7c4.7,2.5,8.5,6.2,11.2,10.7
			h0.1c0-2.2,0-4.1-0.1-5.7s-0.1-3-0.1-4.2V11h11v106.6h-10.9L1038.3,104.9z M987.9,82.4c0,7.9,2.3,14.3,6.9,19.2s10.7,7.4,18.2,7.4
			c7.5,0,13.6-2.5,18.2-7.4s6.9-11.3,6.9-19.2c0-7.9-2.3-14.3-6.9-19.2s-10.7-7.4-18.2-7.4c-7.5,0-13.6,2.5-18.2,7.4
			C990.2,68,987.9,74.5,987.9,82.4z"/>
		<path class="st0" d="M115,97.8c-1.8,0.1-2.9,1.5-2.9,3.6c0.1,9.2,8.2,17.5,17.4,17.8c2.3,0,3.6-0.6,3.9-2c0.1-0.2,0.1-0.5,0.1-0.8
			c0.1-2-0.9-2.9-3.4-3.2c-3.7-0.4-6.5-1.7-8.4-3.8c-2-2.3-3.2-5.2-3.4-8.2C118,98.9,116.8,97.7,115,97.8z"/>
		<path class="st0" d="M164.5,0L164.5,0c-12,0-22,7.3-25.1,17.3c-0.6,2-1,4.2-1,6.3v35.3c1,1.4,2.3,2.6,3.8,3.5
			c4.6,2.6,8.6,6.3,11.7,10.6c2.9,4,4.5,8.8,4.4,13.8c-0.1,5,0.1,10-0.1,14.9c-0.4,14.6-11.6,26.1-26.8,26.9
			c-13.9,0.7-26.1-9.2-28.3-23c-0.6-3.9-0.5-8-0.7-12c-0.1-3.7,0.1-7.4,0.6-11c1.4-8.6,7-14.4,14-19.2c0.9-0.6,1.9-1.2,2.8-1.8
			c0.5-0.4,1.1-0.8,1.5-1.3V23.6c0-13-11.7-23.6-26-23.6C82.5,0,71.8,8.4,69.7,19.4c-0.3,1.4-0.4,2.8-0.4,4.2v37.2
			c1,1.2,2.2,2.3,3.6,3.1C78.4,67,83,71.5,86.1,77c2,3.4,3,7.3,3,11.3c0,11.6,0,23.3,0,34.9c0,0.9-0.1,1.8-0.4,2.7
			c-0.8,2-3,3.2-5.2,2.7c-2.3-0.6-3.8-2.6-3.8-4.9c-0.1-2.1,0-4.2,0-6.3c0-6.4,0-12.9,0-19.3c0-4.5-2.9-7.7-6.9-7.7
			c-1.2,0-2.4,0.3-3.4,0.8c-2.4,1.4-3.8,4-3.7,6.7c0,6.1,0,12.2,0,18.3c0,2,0,4,0,6c0,0.8,0,1.6-0.1,2.4c-0.2,2.2-1.9,3.9-4.1,4.1
			c-2.3,0.3-4.4-1.1-5-3.3c-0.3-1-0.4-2.1-0.4-3.1c0-1.8,0-3.5,0-5.3c0-6.5,0-13.1,0-19.6c0.1-2.6-1.4-5.1-3.9-6.2L51.8,91
			c-2.5-1.2-5.4-0.7-7.3,1.2c-1.6,1.4-2.5,3.4-2.4,5.5c0,8.2,0,16.3,0,24.5c0,0.5,0,1,0,1.6c-0.2,2.9-2.1,4.9-4.7,4.9
			c-2.7,0-4.8-2.2-4.7-4.9c0,0,0-0.1,0-0.1c0-6.3,0-12.6,0-19c0-5.9-0.2-11.7,0.1-17.6c0.5-10.5,4.7-18.8,15-23.2
			c1.7-0.7,3.3-1.8,4.5-3.2V23.6c0-13-11.7-23.6-26-23.6S0,10.6,0,23.6v84.7c0,17,4.1,30,12.4,39c10.5,11.4,24.4,17.1,41.8,17.1
			c13.8,0,27.4-5.9,41-17.6c12.3,11.8,26.1,17.7,41.5,17.6c14.9,0,27.7-4.9,38.2-14.8c10.5-9.9,15.7-21.9,15.7-36v-90
			C190.6,10.6,178.9,0,164.5,0z"/>
	</g>
</g>
</svg>
