<svg xmlns="http://www.w3.org/2000/svg" viewBox="0 0 1049.12 164.32"><defs><style>.cls-1{fill:#e7404a;}</style></defs><g id="Capa_2" data-name="Capa 2"><g id="Capa_1-2" data-name="Capa 1"><path class="cls-1" d="M276.49,81.09l-13,36.53H251.81L225.73,47.11h12l12.83,36.8c.76,2,1.74,4.8,3,8.46s2.68,8.14,4.37,13.4H258q2.67-8,4.51-13.47t2.82-8.39l12.83-36.8h11.71l12.83,36.8q1.13,3,3,8.46t4.37,13.4h.15q2.67-8,4.51-13.47t2.82-8.39l12.83-36.8h11.42L315.7,117.62H304L291,81.09q-1.69-4.78-3.46-10.08t-3.74-11.07h-.28Q282,65,280.23,70.31T276.49,81.09Z"/><path class="cls-1" d="M386.2,55.29q-9.3,0-14.73,5.78T366,76.72v40.9H355V11h11V57.12h.14a22.1,22.1,0,0,1,9.16-8.53A29,29,0,0,1,389,45.42q12.56,0,19.89,7.89t7.33,20.87v43.44h-11V76q0-10.3-4.79-15.52T386.2,55.29Z"/><path class="cls-1" d="M497.89,117.9a18.68,18.68,0,0,1-9.87-2.47,15.45,15.45,0,0,1-6.21-7.26,28,28,0,0,1-10.57,8.18,33.66,33.66,0,0,1-14.11,3q-11.13,0-18.12-5.92a19.38,19.38,0,0,1-7-15.52q0-10.29,7.41-15.86t21.5-5.57h18.9V74.32q0-8.88-4.94-13.82t-14.24-4.93a27.8,27.8,0,0,0-4.8.42,20.77,20.77,0,0,0-4.65,1.41,21.06,21.06,0,0,0-4.44,2.33,19.6,19.6,0,0,0-3.31,2.89l-6.07-7.47a19.16,19.16,0,0,1,4.73-4.09,43,43,0,0,1,6.69-3.39A37,37,0,0,1,455.3,46a43.58,43.58,0,0,1,7.05-.56q12.84,0,20.52,7.82t7.69,20.66V98.72c0,3.2.68,5.52,2,7s3.46,2.19,6.28,2.19a7.66,7.66,0,0,0,1.41-.14v10a4.92,4.92,0,0,1-1.13.14ZM443.17,97.59a10.68,10.68,0,0,0,4.3,9q4.3,3.24,11.64,3.24a21.59,21.59,0,0,0,14.81-5.22,17,17,0,0,0,5.92-13.39V85.61H461.36q-9.17,0-13.67,3T443.17,97.59Z"/><path class="cls-1" d="M547.1,47.11v9.73H530.6v60.78h-11V56.84H503.11V47.11H519.6v-21h11v21Z"/><path class="cls-1" d="M582.64,107.75v9.73a8.13,8.13,0,0,1-1.9.35c-.71,0-1.49.07-2.33.07q-8,0-12.27-4.65t-4.23-13.54V56.84h-16.5V47.11h16.5v-21h11v21h16.5v9.73h-16.5V99.71q0,4.1,1.83,6.13a7,7,0,0,0,5.5,2,12,12,0,0,0,1.27-.07A8.57,8.57,0,0,1,582.64,107.75Z"/><path class="cls-1" d="M633,55.29q-9.3,0-14.74,5.78t-5.42,15.65v40.9h-11V11h11V57.12H613a22,22,0,0,1,9.16-8.53,29,29,0,0,1,13.68-3.17q12.56,0,19.88,7.89T663,74.18v43.44H652V76q0-10.3-4.8-15.52T633,55.29Z"/><path class="cls-1" d="M736.77,99.85l6.63,6.91a24.25,24.25,0,0,1-5.08,5.22,33.06,33.06,0,0,1-7.47,4.23,35.49,35.49,0,0,1-7.41,2.32,41,41,0,0,1-8.11.78q-16.07,0-25.87-10.15t-9.8-26.8q0-15.8,9.73-26.37A31.42,31.42,0,0,1,713.5,45.42q14.67,0,23.76,9.37t9.1,24.61c0,1.32,0,2.49-.07,3.53a14.82,14.82,0,0,1-.35,2.68H691.22q.71,10.58,7.62,17.2t17.34,6.63a26.82,26.82,0,0,0,5.85-.64,25.44,25.44,0,0,0,5.57-1.9,30.36,30.36,0,0,0,5.29-3.17A19.26,19.26,0,0,0,736.77,99.85ZM713.22,55.29a20.21,20.21,0,0,0-14.67,5.92,24.72,24.72,0,0,0-7.19,15.23h43.29v-.71a19.6,19.6,0,0,0-5.92-14.66Q722.81,55.28,713.22,55.29Z"/><path class="cls-1" d="M795.57,47.11v9.73h-16.5v60.78h-11V56.84h-16.5V47.11h16.5V36q0-11.28,6.56-18.12T792.19,11c.94,0,1.81,0,2.61.07s1.52.12,2.18.21v9.87q-.84-.14-1.83-.21c-.66-.05-1.41-.07-2.26-.07q-6.76,0-10.29,3.66t-3.53,10.72V47.11Z"/><path class="cls-1" d="M876.23,82.36q0,15.8-10.57,26.37t-26.37,10.58q-15.79,0-26.37-10.58T802.34,82.36q0-15.8,10.58-26.37t26.37-10.57q15.78,0,26.37,10.57T876.23,82.36Zm-11.84,0q0-11.83-6.91-19.25t-18.19-7.4q-11.29,0-18.19,7.4t-6.91,19.25q0,11.85,6.91,19.25t18.19,7.4q11.28,0,18.19-7.4T864.39,82.36Z"/><path class="cls-1" d="M963.1,82.36q0,15.8-10.58,26.37t-26.37,10.58q-15.79,0-26.37-10.58T889.21,82.36q0-15.8,10.57-26.37t26.37-10.57q15.79,0,26.37,10.57T963.1,82.36Zm-11.85,0q0-11.83-6.91-19.25t-18.19-7.4q-11.28,0-18.19,7.4t-6.91,19.25q0,11.85,6.91,19.25t18.19,7.4q11.28,0,18.19-7.4T951.25,82.36Z"/><path class="cls-1" d="M1038.26,104.93h-.14a28.19,28.19,0,0,1-11.21,10.71,33.84,33.84,0,0,1-16,3.67q-15.09,0-25-10.58t-9.87-26.37q0-15.8,9.87-26.37t25-10.57a34,34,0,0,1,16,3.66,28.28,28.28,0,0,1,11.21,10.72h.14c0-2.16,0-4.07-.07-5.71s-.07-3-.07-4.16V11h11V117.62h-10.86ZM987.92,82.36q0,11.85,6.91,19.25T1013,109q11.28,0,18.19-7.4t6.91-19.25q0-11.83-6.91-19.25T1013,55.71q-11.28,0-18.19,7.4T987.92,82.36Z"/><path class="cls-1" d="M115,97.78c-1.82.1-2.91,1.47-2.9,3.64.06,9.2,8.21,17.53,17.38,17.76,2.3,0,3.56-.6,3.92-2a4.2,4.2,0,0,0,.12-.75c.1-2-.92-2.93-3.45-3.25-3.69-.45-6.48-1.71-8.44-3.8a14,14,0,0,1-3.36-8.24C118,98.92,116.8,97.68,115,97.78Z"/><path class="cls-1" d="M164.5,0h0c-12,0-22,7.32-25.07,17.27a21.27,21.27,0,0,0-1,6.3V58.88a11.89,11.89,0,0,0,3.84,3.51A36.93,36.93,0,0,1,154,73a22.83,22.83,0,0,1,4.41,13.78c-.09,5,.07,10-.06,14.94-.39,14.62-11.64,26.14-26.77,26.89a27.33,27.33,0,0,1-28.34-23c-.6-3.94-.47-8-.67-12a67.39,67.39,0,0,1,.55-11c1.44-8.6,7-14.43,14-19.2.9-.63,1.88-1.15,2.77-1.78a11.29,11.29,0,0,0,1.52-1.28V23.57c0-13-11.66-23.57-26-23.57C82.47,0,71.84,8.37,69.66,19.39a21.4,21.4,0,0,0-.43,4.18V60.74a13,13,0,0,0,3.61,3.09A35.83,35.83,0,0,1,86.14,77a22.26,22.26,0,0,1,3,11.29c0,11.64,0,23.29,0,34.93a7.09,7.09,0,0,1-.44,2.68,4.47,4.47,0,0,1-5.16,2.66,5.06,5.06,0,0,1-3.85-4.89c-.09-2.1,0-4.21,0-6.31q0-9.67,0-19.34c0-4.49-2.88-7.66-6.94-7.72a6.69,6.69,0,0,0-3.43.85,7.55,7.55,0,0,0-3.68,6.73c0,6.1,0,12.2,0,18.3q0,3,0,6a18.56,18.56,0,0,1-.11,2.36,4.5,4.5,0,0,1-4.11,4.09,4.56,4.56,0,0,1-5-3.33,11.59,11.59,0,0,1-.36-3.12c0-1.75,0-3.5,0-5.26q0-9.8,0-19.61a6.47,6.47,0,0,0-3.86-6.15L51.76,91a6.56,6.56,0,0,0-7.33,1.18A6.91,6.91,0,0,0,42,97.72Q42,110,42,122.2c0,.53,0,1,0,1.58-.16,2.86-2.09,4.85-4.67,4.86a4.8,4.8,0,0,1-4.71-5c0-6.32,0-12.64,0-19,0-5.86-.24-11.73.06-17.57.54-10.52,4.7-18.85,15-23.21a11.91,11.91,0,0,0,4.48-3.22V23.57c0-13-11.67-23.57-26-23.57S0,10.55,0,23.57v84.66q0,25.46,12.4,39,15.73,17.13,41.78,17.14,20.63,0,41-17.65,18.38,17.66,41.51,17.65,22.42,0,38.16-14.81t15.74-36V23.57C190.55,10.55,178.89,0,164.5,0Z"/></g></g></svg>